<svg xmlns="http://www.w3.org/2000/svg" xmlns:xlink="http://www.w3.org/1999/xlink" width="500" zoomAndPan="magnify" viewBox="0 0 375 149.999998" height="200" preserveAspectRatio="xMidYMid meet" version="1.0"><defs><g/></defs><rect x="-37.5" width="450" fill="#ffffff" y="-15" height="179.999997" fill-opacity="1"/><rect x="-37.5" width="450" fill="#ffffff" y="-15" height="179.999997" fill-opacity="1"/><rect x="-37.5" width="450" fill="#171923" y="-15" height="179.999997" fill-opacity="1"/><g fill="#ffffff" fill-opacity="1"><g transform="translate(91.705075, 87.997864)"><g><path d="M 9.1875 -25.625 L 15.765625 -7.046875 L 22.3125 -25.625 L 29.25 -25.625 L 29.25 0 L 23.953125 0 L 23.953125 -7 L 24.484375 -19.09375 L 17.5625 0 L 13.9375 0 L 7.046875 -19.078125 L 7.5625 -7 L 7.5625 0 L 2.28125 0 L 2.28125 -25.625 Z M 9.1875 -25.625 "/></g></g></g><g fill="#ffffff" fill-opacity="1"><g transform="translate(123.271025, 87.997864)"><g><path d="M 9.0625 -7.203125 L 12.578125 -19.046875 L 18.046875 -19.046875 L 10.390625 2.953125 L 9.96875 3.953125 C 8.820312 6.441406 6.941406 7.6875 4.328125 7.6875 C 3.585938 7.6875 2.835938 7.578125 2.078125 7.359375 L 2.078125 3.5 L 2.84375 3.515625 C 3.8125 3.515625 4.53125 3.367188 5 3.078125 C 5.476562 2.785156 5.851562 2.300781 6.125 1.625 L 6.71875 0.046875 L 0.046875 -19.046875 L 5.53125 -19.046875 Z M 9.0625 -7.203125 "/></g></g></g><g fill="#ed64a6" fill-opacity="1"><g transform="translate(141.357416, 87.997864)"><g><path d="M 7.5625 -4.234375 L 18.78125 -4.234375 L 18.78125 0 L 2.28125 0 L 2.28125 -25.625 L 7.5625 -25.625 Z M 7.5625 -4.234375 "/></g></g></g><g fill="#ed64a6" fill-opacity="1"><g transform="translate(160.870598, 87.997864)"><g><path d="M 10.71875 0.359375 C 7.925781 0.359375 5.648438 -0.492188 3.890625 -2.203125 C 2.140625 -3.921875 1.265625 -6.207031 1.265625 -9.0625 L 1.265625 -9.5625 C 1.265625 -11.46875 1.632812 -13.175781 2.375 -14.6875 C 3.113281 -16.195312 4.160156 -17.359375 5.515625 -18.171875 C 6.867188 -18.984375 8.414062 -19.390625 10.15625 -19.390625 C 12.757812 -19.390625 14.804688 -18.566406 16.296875 -16.921875 C 17.796875 -15.285156 18.546875 -12.957031 18.546875 -9.9375 L 18.546875 -7.875 L 6.421875 -7.875 C 6.585938 -6.625 7.082031 -5.625 7.90625 -4.875 C 8.738281 -4.125 9.785156 -3.75 11.046875 -3.75 C 13.015625 -3.75 14.546875 -4.457031 15.640625 -5.875 L 18.140625 -3.078125 C 17.378906 -1.992188 16.347656 -1.148438 15.046875 -0.546875 C 13.742188 0.0546875 12.300781 0.359375 10.71875 0.359375 Z M 10.140625 -15.28125 C 9.128906 -15.28125 8.304688 -14.9375 7.671875 -14.25 C 7.046875 -13.570312 6.648438 -12.597656 6.484375 -11.328125 L 13.546875 -11.328125 L 13.546875 -11.734375 C 13.523438 -12.859375 13.21875 -13.726562 12.625 -14.34375 C 12.039062 -14.96875 11.210938 -15.28125 10.140625 -15.28125 Z M 10.140625 -15.28125 "/></g></g></g><g fill="#ed64a6" fill-opacity="1"><g transform="translate(180.34859, 87.997864)"><g><path d="M 12.984375 0 C 12.753906 -0.457031 12.585938 -1.023438 12.484375 -1.703125 C 11.242188 -0.328125 9.640625 0.359375 7.671875 0.359375 C 5.804688 0.359375 4.257812 -0.179688 3.03125 -1.265625 C 1.8125 -2.347656 1.203125 -3.707031 1.203125 -5.34375 C 1.203125 -7.363281 1.945312 -8.910156 3.4375 -9.984375 C 4.9375 -11.066406 7.097656 -11.617188 9.921875 -11.640625 L 12.265625 -11.640625 L 12.265625 -12.71875 C 12.265625 -13.601562 12.035156 -14.304688 11.578125 -14.828125 C 11.128906 -15.359375 10.421875 -15.625 9.453125 -15.625 C 8.597656 -15.625 7.925781 -15.414062 7.4375 -15 C 6.945312 -14.59375 6.703125 -14.035156 6.703125 -13.328125 L 1.625 -13.328125 C 1.625 -14.429688 1.960938 -15.453125 2.640625 -16.390625 C 3.316406 -17.328125 4.273438 -18.0625 5.515625 -18.59375 C 6.765625 -19.125 8.164062 -19.390625 9.71875 -19.390625 C 12.0625 -19.390625 13.921875 -18.800781 15.296875 -17.625 C 16.679688 -16.445312 17.375 -14.789062 17.375 -12.65625 L 17.375 -4.40625 C 17.382812 -2.59375 17.632812 -1.222656 18.125 -0.296875 L 18.125 0 Z M 8.78125 -3.53125 C 9.53125 -3.53125 10.222656 -3.695312 10.859375 -4.03125 C 11.492188 -4.375 11.960938 -4.828125 12.265625 -5.390625 L 12.265625 -8.65625 L 10.359375 -8.65625 C 7.816406 -8.65625 6.460938 -7.773438 6.296875 -6.015625 L 6.28125 -5.71875 C 6.28125 -5.082031 6.503906 -4.554688 6.953125 -4.140625 C 7.398438 -3.734375 8.007812 -3.53125 8.78125 -3.53125 Z M 8.78125 -3.53125 "/></g></g></g><g fill="#ed64a6" fill-opacity="1"><g transform="translate(199.668218, 87.997864)"><g><path d="M 12.65625 -14.28125 C 11.957031 -14.375 11.347656 -14.421875 10.828125 -14.421875 C 8.898438 -14.421875 7.640625 -13.769531 7.046875 -12.46875 L 7.046875 0 L 1.953125 0 L 1.953125 -19.046875 L 6.765625 -19.046875 L 6.90625 -16.78125 C 7.925781 -18.519531 9.335938 -19.390625 11.140625 -19.390625 C 11.703125 -19.390625 12.226562 -19.316406 12.71875 -19.171875 Z M 12.65625 -14.28125 "/></g></g></g><g fill="#ed64a6" fill-opacity="1"><g transform="translate(212.811906, 87.997864)"><g><path d="M 6.640625 -19.046875 L 6.796875 -16.84375 C 8.148438 -18.539062 9.972656 -19.390625 12.265625 -19.390625 C 14.285156 -19.390625 15.785156 -18.796875 16.765625 -17.609375 C 17.753906 -16.429688 18.257812 -14.660156 18.28125 -12.296875 L 18.28125 0 L 13.203125 0 L 13.203125 -12.1875 C 13.203125 -13.257812 12.96875 -14.039062 12.5 -14.53125 C 12.03125 -15.019531 11.25 -15.265625 10.15625 -15.265625 C 8.726562 -15.265625 7.65625 -14.648438 6.9375 -13.421875 L 6.9375 0 L 1.84375 0 L 1.84375 -19.046875 Z M 6.640625 -19.046875 "/></g></g></g><g fill="#ed64a6" fill-opacity="1"><g transform="translate(232.993709, 87.997864)"><g><path d="M 7.328125 0 L 2.21875 0 L 2.21875 -19.046875 L 7.328125 -19.046875 Z M 1.921875 -23.96875 C 1.921875 -24.726562 2.175781 -25.351562 2.6875 -25.84375 C 3.195312 -26.34375 3.890625 -26.59375 4.765625 -26.59375 C 5.640625 -26.59375 6.332031 -26.34375 6.84375 -25.84375 C 7.363281 -25.351562 7.625 -24.726562 7.625 -23.96875 C 7.625 -23.195312 7.363281 -22.5625 6.84375 -22.0625 C 6.320312 -21.570312 5.628906 -21.328125 4.765625 -21.328125 C 3.910156 -21.328125 3.222656 -21.570312 2.703125 -22.0625 C 2.179688 -22.5625 1.921875 -23.195312 1.921875 -23.96875 Z M 1.921875 -23.96875 "/></g></g></g><g fill="#ed64a6" fill-opacity="1"><g transform="translate(242.547958, 87.997864)"><g><path d="M 6.640625 -19.046875 L 6.796875 -16.84375 C 8.148438 -18.539062 9.972656 -19.390625 12.265625 -19.390625 C 14.285156 -19.390625 15.785156 -18.796875 16.765625 -17.609375 C 17.753906 -16.429688 18.257812 -14.660156 18.28125 -12.296875 L 18.28125 0 L 13.203125 0 L 13.203125 -12.1875 C 13.203125 -13.257812 12.96875 -14.039062 12.5 -14.53125 C 12.03125 -15.019531 11.25 -15.265625 10.15625 -15.265625 C 8.726562 -15.265625 7.65625 -14.648438 6.9375 -13.421875 L 6.9375 0 L 1.84375 0 L 1.84375 -19.046875 Z M 6.640625 -19.046875 "/></g></g></g><g fill="#ed64a6" fill-opacity="1"><g transform="translate(262.729761, 87.997864)"><g><path d="M 1.21875 -9.65625 C 1.21875 -12.582031 1.910156 -14.9375 3.296875 -16.71875 C 4.691406 -18.5 6.566406 -19.390625 8.921875 -19.390625 C 11.015625 -19.390625 12.640625 -18.675781 13.796875 -17.25 L 14.015625 -19.046875 L 18.625 -19.046875 L 18.625 -0.640625 C 18.625 1.023438 18.242188 2.472656 17.484375 3.703125 C 16.722656 4.941406 15.65625 5.882812 14.28125 6.53125 C 12.914062 7.175781 11.3125 7.5 9.46875 7.5 C 8.070312 7.5 6.707031 7.21875 5.375 6.65625 C 4.050781 6.101562 3.050781 5.382812 2.375 4.5 L 4.625 1.40625 C 5.894531 2.820312 7.429688 3.53125 9.234375 3.53125 C 10.585938 3.53125 11.640625 3.171875 12.390625 2.453125 C 13.140625 1.734375 13.515625 0.710938 13.515625 -0.609375 L 13.515625 -1.640625 C 12.335938 -0.304688 10.796875 0.359375 8.890625 0.359375 C 6.597656 0.359375 4.742188 -0.535156 3.328125 -2.328125 C 1.921875 -4.117188 1.21875 -6.492188 1.21875 -9.453125 Z M 6.296875 -9.296875 C 6.296875 -7.566406 6.640625 -6.210938 7.328125 -5.234375 C 8.023438 -4.253906 8.976562 -3.765625 10.1875 -3.765625 C 11.738281 -3.765625 12.847656 -4.347656 13.515625 -5.515625 L 13.515625 -13.515625 C 12.835938 -14.679688 11.738281 -15.265625 10.21875 -15.265625 C 9 -15.265625 8.039062 -14.765625 7.34375 -13.765625 C 6.644531 -12.765625 6.296875 -11.273438 6.296875 -9.296875 Z M 6.296875 -9.296875 "/></g></g></g></svg>